{
	"asset":{
		"generator":"Khronos glTF Blender I/O v4.0.44",
		"version":"2.0"
	},
	"extensionsUsed":[
		"KHR_materials_emissive_strength"
	],
	"scene":0,
	"scenes":[
		{
			"name":"Scene",
			"nodes":[
				0
			]
		}
	],
	"nodes":[
		{
			"mesh":0,
			"name":"Wind_Center_R",
			"rotation":[
				-0.033773694187402725,
				-0.7036548256874084,
				0.03463006392121315,
				0.7088934779167175
			],
			"scale":[
				0.009999999776482582,
				0.009999998845160007,
				0.010000000707805157
			]
		}
	],
	"materials":[
		{
			"alphaMode":"BLEND",
			"doubleSided":true,
			"emissiveFactor":[
				1,
				1,
				1
			],
			"emissiveTexture":{
				"index":0
			},
			"extensions":{
				"KHR_materials_emissive_strength":{
					"emissiveStrength":2
				}
			},
			"name":"Wind_Blow",
			"pbrMetallicRoughness":{
				"baseColorTexture":{
					"index":1
				},
				"metallicFactor":0,
				"roughnessFactor":0.48181819915771484
			}
		}
	],
	"meshes":[
		{
			"name":"Mesh.008",
			"primitives":[
				{
					"attributes":{
						"POSITION":0,
						"NORMAL":1,
						"TEXCOORD_0":2,
						"TEXCOORD_1":3
					},
					"indices":4,
					"material":0
				}
			]
		}
	],
	"textures":[
		{
			"sampler":0,
			"source":0
		},
		{
			"sampler":0,
			"source":1
		}
	],
	"images":[
		{
			"mimeType":"image/png",
			"name":"Windblow_fix",
			"uri":"Windblow_fix.png"
		},
		{
			"mimeType":"image/png",
			"name":"Windblow_fix-Windblow_fix-gradation",
			"uri":"Windblow_fix-Windblow_fix-gradation.png"
		}
	],
	"accessors":[
		{
			"bufferView":0,
			"componentType":5126,
			"count":3288,
			"max":[
				41.757286071777344,
				3.351797580718994,
				8.317683219909668
			],
			"min":[
				-4.440279006958008,
				-5.049935817718506,
				-8.038910865783691
			],
			"type":"VEC3"
		},
		{
			"bufferView":1,
			"componentType":5126,
			"count":3288,
			"type":"VEC3"
		},
		{
			"bufferView":2,
			"componentType":5126,
			"count":3288,
			"type":"VEC2"
		},
		{
			"bufferView":3,
			"componentType":5126,
			"count":3288,
			"type":"VEC2"
		},
		{
			"bufferView":4,
			"componentType":5123,
			"count":18600,
			"type":"SCALAR"
		}
	],
	"bufferViews":[
		{
			"buffer":0,
			"byteLength":39456,
			"byteOffset":0,
			"target":34962
		},
		{
			"buffer":0,
			"byteLength":39456,
			"byteOffset":39456,
			"target":34962
		},
		{
			"buffer":0,
			"byteLength":26304,
			"byteOffset":78912,
			"target":34962
		},
		{
			"buffer":0,
			"byteLength":26304,
			"byteOffset":105216,
			"target":34962
		},
		{
			"buffer":0,
			"byteLength":37200,
			"byteOffset":131520,
			"target":34963
		}
	],
	"samplers":[
		{
			"magFilter":9729,
			"minFilter":9987
		}
	],
	"buffers":[
		{
			"byteLength":168720,
			"uri":"wind_single.bin"
		}
	]
}
